<?xml version="1.0" standalone="no"?><!DOCTYPE svg PUBLIC "-//W3C//DTD SVG 1.1//EN" "http://www.w3.org/Graphics/SVG/1.1/DTD/svg11.dtd"><svg t="1594734061856" class="icon" viewBox="0 0 1024 1024" version="1.1" xmlns="http://www.w3.org/2000/svg" p-id="4180" xmlns:xlink="http://www.w3.org/1999/xlink" width="200" height="200"><defs><style type="text/css"></style></defs><path d="M914.8625 247.7571875c0-23.289375-18.8596875-42.148125-42.1490625-42.148125H151.5715625c-23.289375 0-42.148125 18.85875-42.148125 42.148125v634.820625c0 23.2884375 18.85875 42.148125 42.148125 42.148125H872.7125c23.289375 0 42.148125-18.8596875 42.148125-42.148125V247.75625z m57.5259375 634.820625c0 55.0584375-44.615625 99.675-99.675 99.675H151.5715625c-55.059375 0-99.675-44.6165625-99.675-99.675V247.75625c0-55.059375 44.615625-99.675 99.675-99.675H872.7125c55.059375 0 99.675 44.615625 99.675 99.675v634.820625z m-719.116875-576.28125c-15.885 0-28.7953125-12.909375-28.7953125-28.7953125V61.76c0-15.885 12.9103125-28.7953125 28.7953125-28.7953125s28.7953125 12.9103125 28.7953125 28.7953125v215.74125c-0.06375 15.885-12.9103125 28.7953125-28.7953125 28.7953125m503.375625 0c-15.885 0-28.7953125-12.909375-28.7953125-28.7953125V61.76c0-15.885 12.9103125-28.7953125 28.7953125-28.7953125s28.7315625 12.9103125 28.7315625 28.7953125v215.74125c0.06375 15.885-12.8465625 28.7953125-28.7315625 28.7953125m184.035 61.89375H77.7171875c-7.974375 0-14.36625-6.455625-14.36625-14.36625 0-7.9734375 6.4546875-14.3653125 14.36625-14.3653125H940.68125c7.974375 0 14.36625 6.4546875 14.36625 14.3653125a14.315625 14.315625 0 0 1-14.36625 14.36625m-680.00625 154.606875a8.2921875 8.2921875 0 0 0 5.821875 2.1515625c2.278125-0.0628125 4.2403125-1.0125 5.69625-2.53125l16.644375-17.34-0.06375-0.1265625 78.538125-81.1321875c1.4559375-1.4559375 2.278125-3.4809375 2.2153125-5.69625-0.06375-2.1515625-1.07625-4.11375-2.595-5.5059375l-13.9228125-13.415625c-1.51875-1.393125-4.430625-2.2153125-6.70875-2.1525-2.214375 0.06375-3.3534375 1.0125-4.7465625 2.4684375l-43.2234375 48.793125c-9.1134375 9.935625-30.25125 31.959375-34.30125 31.959375-3.9871875 0-9.3028125-6.58125-10.8215625-7.974375l-17.656875-16.2c-1.5825-1.393125-3.6075-2.21625-5.885625-2.1525a8.2096875 8.2096875 0 0 0-5.69625 2.53125l-11.0746875 11.518125c-1.4559375 1.51875-2.278125 3.54375-2.2153125 5.69625a7.8 7.8 0 0 0 2.53125 5.56875l47.465625 43.5403125z m227.259375 0a8.2921875 8.2921875 0 0 0 5.821875 2.1515625c2.278125-0.0628125 4.24125-1.0125 5.69625-2.53125l16.7071875-17.34-0.1265625-0.1265625 78.538125-81.1321875c1.4559375-1.4559375 2.278125-3.4809375 2.2153125-5.69625a7.771875 7.771875 0 0 0-2.53125-5.5059375l-13.92375-13.415625c-1.51875-1.393125-4.4925-2.2153125-6.7715625-2.1525-2.214375 0.06375-3.3534375 1.0125-4.745625 2.4684375l-43.1615625 48.793125c-9.17625 9.935625-30.3140625 31.959375-34.3640625 31.959375-3.9871875 0-9.3028125-6.58125-10.8215625-7.974375l-17.656875-16.2a8.2921875 8.2921875 0 0 0-5.821875-2.1525 8.2096875 8.2096875 0 0 0-5.69625 2.53125l-11.1375 11.518125c-1.456875 1.51875-2.2790625 3.54375-2.21625 5.69625 0.06375 2.214375 1.07625 4.1765625 2.595 5.56875l47.4009375 43.5403125z m219.095625 0a8.2921875 8.2921875 0 0 0 5.821875 2.1515625c2.278125-0.0628125 4.2403125-1.0125 5.69625-2.53125l16.7071875-17.40375-0.1265625-0.1265625 78.538125-81.13125c1.4559375-1.4559375 2.278125-3.481875 2.2153125-5.69625a7.8 7.8 0 0 0-2.53125-5.56875l-13.92375-13.4175c-1.51875-1.3921875-4.4934375-2.214375-6.7078125-2.1515625-2.2153125 0.06375-3.354375 1.0125-4.809375 2.4684375l-43.1615625 48.793125c-9.17625 9.871875-30.3140625 31.959375-34.3640625 31.959375-3.9871875 0-9.3028125-6.58125-10.8215625-7.974375l-17.656875-16.2c-1.51875-1.393125-3.54375-2.21625-5.821875-2.1525a8.2096875 8.2096875 0 0 0-5.69625 2.53125l-11.1384375 11.581875c-1.4559375 1.455-2.278125 3.48-2.2153125 5.6953125 0.06375 2.2153125 1.07625 4.1765625 2.53125 5.56875l47.465625 43.6040625z m-448.696875 161.821875a8.2921875 8.2921875 0 0 0 5.8228125 2.1515625c2.278125-0.0628125 4.2403125-1.0125 5.6953125-2.53125l16.708125-17.40375-0.06375-0.0628125 78.538125-81.1321875c1.455-1.4559375 2.278125-3.4809375 2.214375-5.69625a7.8 7.8 0 0 0-2.53125-5.56875l-13.921875-13.4165625c-1.5825-1.329375-4.494375-2.1515625-6.7725-2.08875-2.2153125 0.06375-3.354375 1.0125-4.809375 2.4684375l-43.1615625 48.793125c-9.1125 9.935625-30.2503125 31.959375-34.3003125 31.959375-3.9871875 0-9.3028125-6.58125-10.8225-7.974375l-17.71875-16.2c-1.5196875-1.393125-3.5446875-2.2153125-5.8228125-2.1525a8.2096875 8.2096875 0 0 0-5.69625 2.53125l-11.0746875 11.518125c-1.4559375 1.4559375-2.278125 3.4809375-2.2153125 5.69625a7.8 7.8 0 0 0 2.53125 5.56875l47.401875 43.5403125z m0 162.58125a8.2921875 8.2921875 0 0 0 5.8228125 2.1525c2.278125-0.06375 4.2403125-1.0125 5.6953125-2.53125l16.708125-17.40375-0.1265625-0.1265625 78.5371875-81.133125c1.4559375-1.51875 2.278125-3.4809375 2.2153125-5.6953125a7.8 7.8 0 0 0-2.53125-5.56875l-13.9228125-13.4175c-1.51875-1.3921875-4.4934375-2.214375-6.70875-2.1515625-2.2153125 0.06375-3.354375 1.0125-4.7465625 2.4684375l-43.160625 48.793125c-9.17625 9.871875-30.3140625 31.959375-34.3640625 31.959375-3.9871875 0-9.3028125-6.58125-10.8225-7.974375l-17.6559375-16.2c-1.5825-1.265625-3.6075-2.08875-5.885625-2.025a8.2096875 8.2096875 0 0 0-5.69625 2.53125l-11.1375 11.5809375c-1.4559375 1.455-2.278125 3.48-2.2153125 5.6953125 0.0628125 2.2153125 1.0753125 4.1765625 2.5940625 5.56875l47.401875 43.4775z m227.323125-162.58125a8.2921875 8.2921875 0 0 0 5.821875 2.1515625c2.278125-0.0628125 4.2403125-1.0125 5.69625-2.53125l16.7071875-17.40375-0.1265625-0.0628125 78.538125-81.1321875c1.455-1.4559375 2.278125-3.4809375 2.2153125-5.69625-0.06375-2.1515625-1.07625-4.11375-2.595-5.5059375l-13.9228125-13.415625c-1.51875-1.393125-4.430625-2.2153125-6.70875-2.1525-2.214375 0.06375-3.354375 1.0125-4.7465625 2.4684375l-43.160625 48.793125c-9.17625 9.935625-30.3140625 31.959375-34.3640625 31.959375-3.9871875 0-9.3028125-6.58125-10.8215625-7.974375l-17.656875-16.2a8.2921875 8.2921875 0 0 0-5.821875-2.1525c-2.2790625 0.06375-4.3040625 1.0125-5.69625 2.4684375l-11.1384375 11.5809375c-1.4559375 1.4559375-2.278125 3.4809375-2.2153125 5.69625 0.06375 2.214375 1.07625 4.1765625 2.595 5.56875l47.4009375 43.5403125z m219.095625 0a8.2921875 8.2921875 0 0 0 5.821875 2.1515625c2.278125-0.0628125 4.2403125-1.0125 5.69625-2.53125l16.7071875-17.40375-0.1265625-0.1265625 78.538125-81.13125c1.455-1.4559375 2.278125-3.481875 2.214375-5.69625a7.8 7.8 0 0 0-2.53125-5.56875l-13.921875-13.4175c-1.51875-1.3921875-4.494375-2.214375-6.70875-2.1515625-2.2153125 0.06375-3.354375 1.0125-4.809375 2.4684375l-43.1625 48.9196875c-9.1753125 9.871875-30.313125 31.959375-34.363125 31.959375-3.9871875 0-9.3028125-6.58125-10.8225-7.974375l-17.6559375-16.2c-1.51875-1.393125-3.54375-2.2153125-5.821875-2.1525a8.2096875 8.2096875 0 0 0-5.69625 2.53125l-11.1384375 11.581875c-1.4559375 1.455-2.278125 3.48-2.2153125 5.6953125 0.06375 2.2153125 1.07625 4.1765625 2.53125 5.56875l47.4646875 43.4775z m12.0871875 68.855625c-17.84625 0-32.0859375-0.06375-32.0859375-0.06375v90.6890625s14.240625-0.06375 32.0859375-0.06375h25.820625c17.8471875 0 32.71875 0.06375 32.71875 0.06375v-90.6890625s-14.8715625 0.06375-32.71875 0.06375h-25.820625z m-258.7753125-0.06375v90.6253125s14.4928125-0.0628125 32.3390625-0.0628125h25.820625c17.84625 0 32.465625 0.0628125 32.465625 0.0628125l-0.1265625-58.2225c0-17.8471875 0.1265625-32.4028125 0.1265625-32.4028125h-90.6253125z" p-id="4181" fill="#1296db"></path></svg>